<svg id="Layer_1" data-name="Layer 1" xmlns="http://www.w3.org/2000/svg" viewBox="0 0 512 512"><title>globe-light-bulb</title><path d="M512,256c0,141.38-114.61,256-256,256S0,397.38,0,256,114.61,0,256,0,512,114.62,512,256Z" fill="#58595b"/><path d="M272.33,402.27c.83,0,1.64,0,2.47,0V109.71c-3.61,0-7.23.12-10.86.39-45.52,2.46-90.63,29.65-114.71,70.18-23.55,37.83-27.92,92.83-8.69,133.63C162.42,364.64,215.85,402.18,272.33,402.27Zm-93.61-47.76c9-8.58,18.54-15.89,28.94-21.24,2.22,4.17,4.31,7.93,6.8,11.89a178.39,178.39,0,0,0,44,47.78A138.59,138.59,0,0,1,178.72,354.51Zm-42-93c.74-.08,1.54.12,2.13-.21l50.2.11c.3,21,6,44.23,14.73,63.92a167.4,167.4,0,0,0-31.05,22.83C150.53,323.33,138,293.88,136.75,261.53Zm35.64-98.15a140.85,140.85,0,0,0,31.73,23.21A179.13,179.13,0,0,0,189,253l-52.33-.1C137.76,218.65,149.65,188.16,172.39,163.38Zm88.84-44.73c-21.46,15.05-41.87,37.7-53.12,60.46A125.73,125.73,0,0,1,178.31,157C201.81,134.34,230.36,121.9,261.22,118.65Zm7.1,77.45a127,127,0,0,1-52.66-13.26c11.26-22,31.15-44.34,52.53-58.33Zm0,9.26L268.24,253l-.14.14L197.66,253A155.55,155.55,0,0,1,212,190.67a143,143,0,0,0,56.34,14Zm.12,101.77a154.24,154.24,0,0,0-57.14,14.08c-7.91-18.48-13.4-38.38-13.65-59.69l1.94-.14,68.67.17Zm.37,82.58c-22.12-15.06-41.94-36.87-53.67-60.45l1-.6c16-7.74,34.3-12.05,52.34-13.14Z" fill="#b4bb4a"/><path d="M293.64,379.26h20.11c-3.68,5.1-11.3,8.69-20.06,8.69h-.06Zm30.5-14.2h-30.5V375h30.5c2.16,0,3.92-1.32,3.92-3v-3.9C328.06,366.43,326.3,365.06,324.14,365.06Zm0-28.8h-30.5v9.91h30.5c2.16,0,3.92-1.33,3.92-3v-3.9C328.06,337.63,326.3,336.27,324.14,336.27Zm0,14.41h-30.5v9.9h30.5c2.16,0,3.92-1.36,3.92-3v-3.9C328.06,352,326.3,350.68,324.14,350.68Zm59.4-132.9a89.91,89.91,0,0,0-89.9-89.9V324.8h39.14v-.17c0-9.53,5.83-22.54,12.95-28.89,0,0,37.82-33.78,37.82-69.4,0-1.43,0-2.85-.09-4.29S383.54,219.21,383.54,217.78Z" fill="#fff"/></svg>